# xmcd
#
# Track frame offsets: 
#        150
#        17740
#        36033
#        57433
#        74535
#        87965
#        108100
#        130248
#        144105
#        162643
#        182888
#        205320
#        220945
#        237735
#        254644
#        270590
#        286839
#        300161
#
# Disc length: 4254 seconds
#
# Revision: 0
# Processed by: cddbd v1.5.1PL2 Copyright (c) Steve Scherf et al.
# Submitted via: ExactAudioCopy v0.95b4
#
DISCID=0b109c12
DTITLE=Mary Karlzen - Yelling At Mary
DYEAR=2003
DGENRE=Country
TTITLE0=Everybody's Sleeping
TTITLE1=Stronger
TTITLE2=Dimestore Life
TTITLE3=Time's Forgotten Crime
TTITLE4=I'd Be Lying
TTITLE5=The Way I See It
TTITLE6=Wooden Man
TTITLE7=Another Town, Another Place
TTITLE8=Walk Like You
TTITLE9=wish You Well
TTITLE10=Anywhere Is Better Than Here
TTITLE11=St. James Hotel
TTITLE12=With Me
TTITLE13=Somewhere
TTITLE14=You Still Belong To Me
TTITLE15=Kill The Birds
TTITLE16=Hearts
TTITLE17=Wooden Man
EXTD=
EXTT0=
EXTT1=
EXTT2=
EXTT3=
EXTT4=
EXTT5=
EXTT6=
EXTT7=
EXTT8=
EXTT9=
EXTT10=
EXTT11=
EXTT12=
EXTT13=
EXTT14=
EXTT15=
EXTT16=
EXTT17=
PLAYORDER=
